<?xml version="1.0" encoding="utf-8"?>
<!-- Generator: Adobe Illustrator 18.0.0, SVG Export Plug-In . SVG Version: 6.00 Build 0)  -->
<!DOCTYPE svg PUBLIC "-//W3C//DTD SVG 1.1//EN" "http://www.w3.org/Graphics/SVG/1.1/DTD/svg11.dtd">
<svg version="1.1" id="Ebene_1" xmlns="http://www.w3.org/2000/svg" xmlns:xlink="http://www.w3.org/1999/xlink" x="0px" y="0px"
	 viewBox="0 0 275.2 76.6" enable-background="new 0 0 275.2 76.6" xml:space="preserve">
<g>
	<g>
		
			<ellipse transform="matrix(0.7168 0.6973 -0.6973 0.7168 55.3429 -82.5302)" fill="#FFFFFF" cx="129.3" cy="26.9" rx="5.6" ry="5.6"/>
		<path fill="#FFFFFF" d="M148.5,18.4L148.5,18.4l0.6,2.3l-2.6,1.1l-1.2-2.1l0.1,0c-0.9,0.2-1.9,0.2-2.8,0l-1.2,2.1l-2.6-1.1
			l0.6-2.3l0.1,0c-0.8-0.5-1.4-1.2-2-2l0,0l-2.3,0.6l-1.1-2.6l2.1-1.2l0,0.1c-0.2-0.9-0.2-1.9,0-2.8l-2.1-1.2l1.1-2.6l2.3,0.6l0,0.1
			c0.3-0.5,0.7-0.9,1.1-1.3h-13.5c-1,0-1.7,0.8-1.7,1.7v11.3l1.6,1.1l-0.1,0.1c0.8-0.5,1.6-0.9,2.5-1.1l0,0l0.3-2.4l2.7,0l0.4,2.3
			l-0.1,0c0.9,0.2,1.8,0.5,2.6,1l1.9-1.4l2,1.9l-1.4,1.9l-0.1,0c0.5,0.8,0.9,1.6,1.1,2.5v0l2.4,0.3l0,2.7l-2.3,0.4l0-0.1
			c-0.2,0.9-0.5,1.8-1,2.6l1.3,1.6h11c1,0,1.7-0.8,1.7-1.7V17.3C149.5,17.7,149,18.1,148.5,18.4z"/>
		<path fill="#FFFFFF" d="M149.3,14.1c-1.2,2.9-4.5,4.3-7.4,3.1c-2.9-1.2-4.3-4.5-3.1-7.4c1.2-2.9,4.5-4.3,7.4-3.1
			C149.1,7.9,150.5,11.2,149.3,14.1z"/>
	</g>
	<g>
		<path fill="#FFFFFF" d="M27.2,47.9c-0.3,1.2-0.5,2.3-0.8,3.5c-0.1,0-0.3,0.1-0.4,0.1c-1.7-1.3-3.7-2.1-6-2.1
			c-4.7-0.1-7.3,3-7.3,9.3c0,6.5,2.7,9.8,7.3,9.7c2.3,0,4.6-0.9,6.5-2.3c0.1,0.1,0.3,0.2,0.4,0.2c-0.1,1.2-0.2,2.4-0.3,3.7
			c-2.2,1.1-4.4,1.8-6.9,1.8c-7.3,0.2-11.4-4.3-11.4-12.7c0-8.7,4.3-13.4,11.9-13.2C22.9,46.1,25.3,46.8,27.2,47.9z"/>
		<path fill="#FFFFFF" d="M46.6,70.9c-0.2-0.9-0.4-1.8-0.6-2.7c-0.4-1.1-0.8-2.2-1.1-3.3c-1.8,0-3.7,0-5.5-0.1
			c-1.7,0.1-3.3,0.1-5,0.2c-0.4,1.1-0.8,2.2-1.2,3.2c-0.2,1-0.4,2-0.6,3c-1.4,0-2.8,0.1-4.2,0.1c3.1-8.4,6.2-16.6,9.3-24.6
			c1.6,0,3.3,0.1,4.9,0.1c2.8,8.1,5.6,16.1,8.4,24C49.4,70.9,48,70.9,46.6,70.9z M40,50.6c-0.1,0-0.2,0-0.3,0
			c-1.4,3.7-2.8,7.4-4.2,11.2c1.4,0,2.7,0,4.1,0.1c1.4,0,2.8-0.1,4.2-0.1C42.5,58.1,41.3,54.4,40,50.6z"/>
		<path fill="#FFFFFF" d="M77.7,70.4c-0.2-2.3-0.4-4.6-0.5-6.9c-0.4-3.4-0.8-6.9-1.2-10.3c-0.1,0-0.2,0-0.3,0
			c-2.2,4.9-4.5,9.9-6.7,14.9c-1.1,0-2.2,0-3.3,0c-2.1-5-4.1-10-6.2-15c-0.1,0-0.2,0-0.4,0c-0.4,3.4-0.8,6.8-1.2,10.3
			c-0.2,2.5-0.4,5-0.6,7.5c-1.2,0-2.3,0-3.5,0.1c0.9-7.9,1.8-15.8,2.7-23.6c1.6,0,3.2,0.1,4.8,0.1c0.4,1.2,0.8,2.3,1.2,3.5
			c1.7,4.2,3.3,8.3,5,12.4c0.1,0,0.2,0,0.3,0c1.8-4.1,3.5-8.3,5.3-12.4c0.4-1.1,0.8-2.2,1.2-3.3c1.6,0,3.2,0,4.7,0.1
			c0.8,7.6,1.6,15.2,2.5,22.8C80.2,70.3,78.9,70.4,77.7,70.4z"/>
		<path fill="#FFFFFF" d="M106.3,61.7c0.1,5.4-3.6,8.6-10.2,8.7c-6.3,0.1-9.8-2.9-9.7-8.3c0-1,0.1-2.1,0.1-3.1
			c0-3.8-0.1-7.5-0.1-11.3c1.4,0,2.8,0,4.1,0c-0.1,4.6-0.1,9.3-0.2,13.9c0,3.9,1.9,5.8,6,5.8c4,0,6.1-1.8,6-5.5
			c-0.1-4.7-0.1-9.4-0.2-14.1c1.4,0,2.8,0,4.2,0c0,3.8-0.1,7.5-0.1,11.3C106.3,60,106.3,60.9,106.3,61.7z"/>
		<path fill="#FFFFFF" d="M133.4,69.9c-1.5,0-3,0-4.5,0c-4.1-5.5-8.1-11-12.2-16.5c-0.1,0-0.2,0-0.3,0c0,3.1,0,6.1,0,9.2
			c0.1,2.5,0.1,4.9,0.2,7.4c-1.3,0-2.6,0-3.9,0c0.1-2.2,0.2-4.4,0.3-6.6c-0.1-5.2-0.1-10.4-0.2-15.6c1.5,0,3,0,4.5,0
			c4.1,5.5,8.1,11,12.2,16.5c0.1,0,0.2,0,0.3,0c0-5.4-0.1-10.9-0.1-16.3c1.3-0.1,2.6-0.2,3.9-0.2c-0.1,5.2-0.2,10.3-0.3,15.5
			C133.3,65.6,133.4,67.8,133.4,69.9z"/>
		<path fill="#FFFFFF" d="M150.4,47.8c7.4,0,11.6,3.6,11.6,10.4c0,7.8-4.5,12-12.7,12c-1.7,0-6.3-0.1-8.7-0.2c0,0,0,0,0,0
			c0.1-2.2,0.2-4.4,0.3-6.6c-0.1-5.1-0.2-10.3-0.3-15.4c0,0,0,0,0,0C143.8,47.9,147.1,47.8,150.4,47.8z M157.6,58.9
			c0-5.7-2.5-8.3-7.6-8.3c-0.8,0-3.8,0.1-5.3,0.1c-0.1,4.1-0.1,8.1-0.2,12.2c0,1.4,0.1,2.7,0.1,4.1c1.8,0.1,4.5,0.2,5.3,0.2
			C154.8,67.4,157.6,64.7,157.6,58.9z"/>
		<path fill="#FFFFFF" d="M181.4,70.2c-0.2-0.8-0.4-1.7-0.6-2.5c-0.4-1-0.8-2.1-1.1-3.1c-1.8,0-3.7-0.1-5.5-0.1
			c-1.7,0-3.3,0.1-5,0.1c-0.4,1-0.8,1.9-1.2,2.9c-0.2,0.9-0.4,1.8-0.6,2.7c-1.4,0-2.8,0-4.2,0c3.1-7.4,6.2-14.8,9.3-22.2
			c1.6,0,3.3,0,4.9,0c2.8,7.4,5.6,14.9,8.4,22.5C184.3,70.2,182.9,70.2,181.4,70.2z M174.9,51.3c-0.1,0-0.2,0-0.3,0
			c-1.4,3.4-2.8,6.9-4.2,10.3c1.4,0,2.7,0.1,4.1,0.1c1.4,0,2.8,0,4.2-0.1C177.4,58.1,176.2,54.7,174.9,51.3z"/>
		<path fill="#FFFFFF" d="M209.7,70.6c-0.7,0-1.4,0-2.1,0c-4.9-6.7-9.8-13.3-14.8-19.8c-0.1,0-0.2,0-0.2,0c0,4.1,0,8.2,0,12.3
			c0,2.4,0.1,4.8,0.1,7.3c-0.7,0-1.3,0-2,0c0-2.2,0.1-4.5,0.1-6.7c0-5.3-0.1-10.6-0.1-15.9c0.7,0,1.5,0,2.2,0
			c4.9,6.4,9.8,13,14.8,19.7c0.1,0,0.1,0,0.2,0c0-6.6,0-13.2,0-19.8c0.7-0.1,1.3-0.1,2-0.2c0,5.5-0.1,11.1-0.1,16.6
			C209.7,66.2,209.7,68.4,209.7,70.6z"/>
		<path fill="#FFFFFF" d="M217.7,69.1c4,0.1,8,0.1,12,0.2c1.1,0,2.2-0.1,3.4-0.1c0.1,0.1,0.1,0.1,0.2,0.2c-0.1,0.6-0.1,1.1-0.2,1.7
			c-1.3,0-2.6-0.1-3.9-0.1c-4-0.1-8-0.2-12.1-0.2c-0.6,0-1.3,0-1.9,0c0-0.5,0-1,0-1.5c5.1-6.7,10.2-13.5,15.3-20.6
			c-3.8,0.1-7.6,0.1-11.4,0.2c-1.1,0.1-2.1,0.2-3.2,0.2c-0.1-0.1-0.1-0.1-0.2-0.2c0.1-0.5,0.1-1.1,0.2-1.6c1.2,0,2.4,0,3.6,0
			c3.9-0.1,7.8-0.2,11.7-0.2c0.6,0,1.2-0.1,1.8-0.1c0,0.5,0,1,0,1.5C228,55.5,222.8,62.4,217.7,69.1z"/>
		<path fill="#FFFFFF" d="M241,71.2c-0.7,0-1.4,0-2.1-0.1c0-2.5,0.1-4.9,0.1-7.4c0-5.6-0.1-11.3-0.1-16.9c0.7,0,1.4,0,2.1-0.1
			c0,5.6-0.1,11.3-0.1,16.9C241,66.2,241,68.7,241,71.2z"/>
		<path fill="#FFFFFF" d="M264.7,71.9c-0.2-0.7-0.4-1.5-0.6-2.2c-0.6-1.9-1.3-3.7-1.9-5.6c-2-0.1-4.1-0.1-6.1-0.2
			c-1.8,0-3.7,0-5.5,0c-0.7,1.8-1.4,3.5-2.1,5.3c-0.2,0.7-0.4,1.4-0.6,2.2c-0.7,0-1.5,0-2.2-0.1c3.3-8.1,6.6-16.4,9.9-24.9
			c0.8,0,1.6,0,2.4-0.1c3,8.4,6,16.9,9,25.6C266.2,71.9,265.5,71.9,264.7,71.9z M256.8,48.7c-0.1,0-0.2,0-0.2,0
			c-1.8,4.5-3.5,9-5.3,13.4c1.7,0,3.4,0,5.1,0.1c1.8,0,3.5,0,5.3,0C260,57.7,258.4,53.2,256.8,48.7z"/>
	</g>
	<path fill="#FFFFFF" d="M8,40.2c0,0,1,0,2.9-0.1c1.9,0,4.6-0.1,8.2-0.2c7-0.1,17.1-0.4,29.1-0.6c6-0.1,12.6-0.2,19.5-0.3
		c6.9-0.1,14.2-0.1,21.7-0.2c7.5,0,15.3-0.1,23.2-0.1c7.9,0,16,0,24-0.1c8,0,16.1,0,24,0.1c7.9,0,15.7,0.1,23.2,0.1
		c7.5,0.1,14.8,0.1,21.7,0.2c6.9,0.1,13.4,0.2,19.5,0.3c6,0.1,11.6,0.2,16.5,0.3c4.9,0.1,9.2,0.2,12.7,0.3c3.5,0.1,6.3,0.2,8.2,0.2
		c1.9,0.1,2.9,0.1,2.9,0.1s-1,0-2.9,0.1c-1.9,0-4.6,0.1-8.2,0.2c-3.5,0.1-7.8,0.2-12.7,0.3c-4.9,0.1-10.4,0.2-16.5,0.3
		c-6,0.1-12.6,0.2-19.5,0.3c-6.9,0.1-14.2,0.1-21.7,0.2c-7.5,0-15.3,0.1-23.2,0.1c-7.9,0-16,0-24,0.1c-8,0-16.1,0-24-0.1
		c-7.9,0-15.7-0.1-23.2-0.1c-7.5-0.1-14.8-0.1-21.7-0.2c-6.9-0.1-13.4-0.2-19.5-0.3c-12.1-0.2-22.1-0.4-29.1-0.6
		c-3.5-0.1-6.3-0.2-8.2-0.2C9,40.3,8,40.2,8,40.2z"/>
</g>
</svg>
