<?xml version="1.0" encoding="utf-8"?>
<!-- Generator: Adobe Illustrator 24.0.3, SVG Export Plug-In . SVG Version: 6.00 Build 0)  -->
<svg version="1.1" xmlns="http://www.w3.org/2000/svg" xmlns:xlink="http://www.w3.org/1999/xlink" x="0px" y="0px"
	 viewBox="0 0 283.5 111.9" style="enable-background:new 0 0 283.5 111.9;" xml:space="preserve">
<style type="text/css">
	.st0{fill:#265b6c;}
	.st1{fill:#EA3F4E;}
	.st2{fill:#F0592E;}
	.st3{fill:#FF8000;}
	.st4{fill:#FFFFFF;}
	.st5{font-family:'BebasNeueBold';}
	.st6{font-size:30px;}
</style>
<g id="Layer_2">
</g>
<g id="Layer_1">
	<rect class="st0" width="383.5" height="111.9"/>
	<g>
		<path class="st4" d="M24.1,62.7l4.9-0.4l4.9-0.3l9.7-0.6c6.5-0.3,12.9-0.6,29.4-0.8c6.5-0.3,12.9-0.3,19.4-0.5
			c6.5-0.1,12.9-0.1,89.4-0.2l19.4,0.1l9.7,0.2c3.2,0.1,6.5,0.1,9.7,0.3l9.7,0.4l9.7,0.5l9.7,0.6l4.9,0.3l4.9,0.4H64.1z"/>
	</g>
	<g>
		<path class="st4" d="M142.4,12.5L124,20c0,29,18.4,30.4,18.4,30.4s18.4-1.1,18.4-30.4L142.4,12.5z M153.8,38.9l-4,3.9l-2.2-2.2
			c-0.8,0.4-1.6,0.8-2.5,1l0,3.1l-5.6,0v-3.1c-0.4-0.1-0.9-0.3-1.3-0.4c-0.4-0.2-0.8-0.4-1.2-0.6l-2.2,2.2l-3.9-3.9l2.2-2.2
			c-0.4-0.8-0.8-1.6-1-2.5l-3,0v-5.5l3,0c0.1-0.4,0.3-0.9,0.4-1.3c0.2-0.4,0.4-0.8,0.6-1.2l-2.1-2.1l4-3.9l2.1,2.1
			c0.8-0.4,1.6-0.8,2.5-1l0-3h5.6l0,3c0.4,0.1,0.9,0.3,1.3,0.4c0.4,0.2,0.8,0.4,1.2,0.6l2.1-2.1l3.9,3.9l-2.1,2.1
			c0.4,0.8,0.8,1.6,1,2.5l3,0v5.5l-3.1,0c-0.1,0.4-0.3,0.9-0.4,1.3c-0.2,0.4-0.4,0.8-0.6,1.2L153.8,38.9z"/>
		<path class="st4" d="M142.4,25.6c-3.3,0-5.9,2.7-5.9,5.9c0,3.3,2.7,5.9,5.9,5.9c3.3,0,5.9-2.7,5.9-5.9
			C148.4,28.2,145.7,25.6,142.4,25.6z"/>
	</g>
	<text transform="matrix(1 0 0 1 60.2133 94.3162)" class="st4 st5 st6">Camundanzia</text>
</g>
</svg>
